<svg width="66" height="66" viewBox="0 0 66 66" fill="none" xmlns="http://www.w3.org/2000/svg">
<path fill-rule="evenodd" clip-rule="evenodd" d="M23 21V46H28.4V37.5312H33.7563L38.0667 46H44L38.958 36.309C40.0197 35.6675 40.9337 34.7876 41.7 33.6694C42.5667 32.3821 43 30.8238 43 28.9946C43 27.1879 42.5778 25.6974 41.7333 24.523C40.9111 23.3261 39.9111 22.4453 38.7333 21.8808C37.5556 21.2936 36.4667 21 35.4667 21H23ZM28.4 33.4661H33.4C34.1333 33.4661 34.9222 33.0935 35.7667 32.3482C36.6333 31.603 37.0667 30.4851 37.0667 28.9946C37.0667 27.4589 36.6333 26.4201 35.7667 25.878C34.9222 25.336 34.1778 25.065 33.5333 25.065H28.4V33.4661Z" fill="white"/>
<circle cx="33" cy="33" r="30.5" stroke="white" stroke-width="5"/>
</svg>
