<svg width="66" height="67" viewBox="0 0 66 67" fill="none" xmlns="http://www.w3.org/2000/svg">
<path fill-rule="evenodd" clip-rule="evenodd" d="M24.6592 59.7334H22.1204V43.8833H3.98828V41.3448H22.1204H24.6592V43.8833V59.7334ZM62.0115 41.3448V43.8833H43.8776V59.7334H41.3392V43.8833V41.3448H43.8776H62.0115ZM41.3392 7.00003H43.8776V22.8499H62.0115V25.3883H43.8776H41.3392V22.8499V7.00003ZM22.1204 7.00003H24.6592V25.3883H3.98828V22.8499H22.1204V7.00003Z" fill="white"/>
<path fill-rule="evenodd" clip-rule="evenodd" d="M20.3065 33.3662C19.8155 52.8252 64.3248 55.1425 66 36.9927C57.9353 56.939 29.8045 43.1943 20.3065 33.3662ZM45.6933 33.367C46.1844 13.9081 1.67502 11.5909 0 29.7406C8.06468 9.79412 36.1955 23.5391 45.6933 33.367Z" fill="white"/>
<circle cx="33.0092" cy="33.3497" r="4.63288" fill="white"/>
</svg>
