<svg width="100" height="113" viewBox="0 0 100 113" fill="none" xmlns="http://www.w3.org/2000/svg">
<path d="M53 37C57.9706 37 62 32.9706 62 28C62 23.0294 57.9706 19 53 19C48.0294 19 44 23.0294 44 28C44 32.9706 48.0294 37 53 37Z" fill="white"/>
<path d="M53 39.9985C45.5476 40.0068 39.5083 46.0461 39.5 53.4985C39.5 54.327 40.1716 54.9985 41 54.9985H64.9999C65.8284 54.9985 66.4999 54.327 66.4999 53.4985C66.4917 46.0461 60.4524 40.0068 53 39.9985Z" fill="white"/>
<path d="M75 42C78.5899 42 81.5 39.0899 81.5 35.5C81.5 31.9101 78.5899 29 75 29C71.4101 29 68.5 31.9101 68.5 35.5C68.5 39.0899 71.4101 42 75 42Z" fill="white"/>
<path d="M75 44.1655C69.6177 44.1715 65.256 48.5332 65.25 53.9155C65.25 54.5138 65.735 54.9988 66.3333 54.9988H83.6666C84.2649 54.9988 84.7499 54.5138 84.7499 53.9155C84.744 48.5332 80.3823 44.1715 75 44.1655Z" fill="white"/>
<path d="M70.3333 12H70.3425M74 12H74.0092M77.6667 12H77.6758M82.25 12C82.25 16.4183 78.5563 20 74 20C72.589 20 71.2607 19.6565 70.0993 19.0511L65 21.8184L67.0287 16.28C66.2189 15.0423 65.75 13.5743 65.75 12C65.75 7.58172 69.4437 4 74 4C78.5563 4 82.25 7.58172 82.25 12Z" stroke="white" stroke-width="2" stroke-linecap="round" stroke-linejoin="round"/>
</svg>
