<svg width="66" height="66" viewBox="0 0 66 66" fill="none" xmlns="http://www.w3.org/2000/svg">
<path d="M65.5073 30.7477C63.0928 25.4677 53.6245 8.25 32.9995 8.25C12.3745 8.25 2.90627 25.4677 0.491774 30.7477C0.167654 31.4553 -0.00012207 32.2245 -0.00012207 33.0028C-0.00012207 33.781 0.167654 34.5502 0.491774 35.2577C2.90627 40.5322 12.3745 57.75 32.9995 57.75C53.6245 57.75 63.0928 40.5323 65.5073 35.2523C65.8307 34.5455 65.9982 33.7773 65.9982 33C65.9982 32.2227 65.8307 31.4545 65.5073 30.7477ZM32.9995 52.25C15.6553 52.25 7.56202 37.4935 5.49952 33.0302C7.56202 28.5065 15.6553 13.75 32.9995 13.75C50.3025 13.75 58.3985 28.4433 60.4995 33C58.3985 37.5567 50.3025 52.25 32.9995 52.25Z" fill="white"/>
<circle cx="32.5" cy="32.5" r="11" stroke="white" stroke-width="3"/>
<path d="M33 10V2" stroke="white" stroke-width="3" stroke-linecap="round"/>
<path d="M23.6569 10.6569L18 5" stroke="white" stroke-width="3" stroke-linecap="round"/>
<path d="M42.9999 10.6569L48.6567 5" stroke="white" stroke-width="3" stroke-linecap="round"/>
<path d="M33 54.6567V62.6567" stroke="white" stroke-width="3" stroke-linecap="round"/>
<path d="M23.6569 53.9999L18 59.6567" stroke="white" stroke-width="3" stroke-linecap="round"/>
<path d="M42.9999 53.9999L48.6567 59.6567" stroke="white" stroke-width="3" stroke-linecap="round"/>
<path fill-rule="evenodd" clip-rule="evenodd" d="M29 28V37H31.0571V33.9512H33.0976L34.7397 37H37L35.0792 33.5112C35.4837 33.2803 35.8319 32.9635 36.1238 32.561C36.454 32.0976 36.619 31.5366 36.619 30.878C36.619 30.2276 36.4582 29.6911 36.1365 29.2683C35.8233 28.8374 35.4423 28.5203 34.9936 28.3171C34.545 28.1057 34.1302 28 33.7492 28H29ZM31.0571 32.4878H32.9619C33.2413 32.4878 33.5418 32.3537 33.8635 32.0854C34.1937 31.8171 34.3587 31.4146 34.3587 30.878C34.3587 30.3252 34.1937 29.9512 33.8635 29.7561C33.5418 29.561 33.2582 29.4634 33.0127 29.4634H31.0571V32.4878Z" fill="white"/>
</svg>
