<svg width="66" height="66" viewBox="0 0 66 66" fill="none" xmlns="http://www.w3.org/2000/svg">
<path fill-rule="evenodd" clip-rule="evenodd" d="M50.3637 23.2706C50.3637 32.8156 42.6371 40.5412 33.1209 40.5412C23.6048 40.5412 15.8782 32.8156 15.8782 23.2706C15.8782 13.7255 23.6048 6 33.1209 6C42.6371 6 50.3637 13.7255 50.3637 23.2706ZM34.2837 46.5126C33.8985 46.5316 33.5108 46.5412 33.1209 46.5412C32.6523 46.5412 32.1869 46.5273 31.7252 46.4999L30.6572 48.0269L20.9354 61.9277L18.0874 66L16.502 61.2875L13.7097 52.9882L4.96519 53.1997L0 53.3199L2.848 49.2477L12.5698 35.3468L12.9383 34.82C10.9912 31.4167 9.87817 27.4738 9.87817 23.2706C9.87817 10.4186 20.2843 0 33.1209 0C45.9576 0 56.3637 10.4186 56.3637 23.2706C56.3637 27.5519 55.2089 31.5633 53.1941 35.0093L53.4302 35.3468L63.152 49.2477L66 53.3199L61.0348 53.1997L52.2903 52.9882L49.498 61.2875L47.9126 66L45.0646 61.9277L35.3428 48.0269L34.2837 46.5126ZM48.0233 41.1293L46.2951 42.9776C45.9156 43.3835 45.4558 43.7058 44.9451 43.924L39.1009 46.4211L46.65 57.2153L48.5015 51.7121C49.0609 50.0495 50.6366 48.9448 52.3884 48.9872L58.1868 49.1275L50.7279 38.4624C49.9003 39.423 48.9956 40.3152 48.0233 41.1293ZM15.3623 38.3333L19.7049 42.9776C20.0844 43.3835 20.5442 43.7058 21.0549 43.924L26.8991 46.4211L19.35 57.2153L17.4985 51.7121C16.9391 50.0495 15.3634 48.9448 13.6116 48.9872L7.81319 49.1275L15.3623 38.3333Z" fill="white"/>
<path fill-rule="evenodd" clip-rule="evenodd" d="M40.0247 19.2048L41.1224 21.8554L43.5 22.46L43.4999 24.4371L41.1139 25.058L40.0159 27.7094L41.5 29.46L39.5 31.46C39.5 31.46 38.1969 30.2913 37.7551 29.9755L35.1045 31.0731L34.5 33.46H32.5L31.897 31.0723L29.2912 30.0003L27.5 31.46L25.5 29.46L27.0157 27.7597L25.9011 25.1155L23.5 24.46V22.46L25.8725 21.9063L26.9534 19.2488L25.5 17.46L27.5 15.46L29.2044 16.9759L31.8491 15.8611L32.481 13.46H34.4353L35.0578 15.8297L37.7647 16.9429L39.5 15.46L41.5 17.46L40.0247 19.2048ZM33.5 28.46C36.2614 28.46 38.5 26.2214 38.5 23.46C38.5 20.6985 36.2614 18.46 33.5 18.46C30.7386 18.46 28.5 20.6985 28.5 23.46C28.5 26.2214 30.7386 28.46 33.5 28.46Z" fill="white" stroke="white" stroke-width="1.5" stroke-linecap="round" stroke-linejoin="round"/>
</svg>
